<svg width="15" height="13" viewBox="0 0 15 13" fill="none" xmlns="http://www.w3.org/2000/svg">
    <path
        d="M14.6887 12.6595C14.7873 12.5517 14.8654 12.4238 14.9187 12.283C14.9721 12.1421 14.9995 11.9911 14.9995 11.8386C14.9995 11.6862 14.9721 11.5352 14.9187 11.3943C14.8654 11.2535 14.7873 11.1255 14.6887 11.0178L10.5657 6.50045L14.6887 1.98308C14.7871 1.87529 14.8652 1.74732 14.9184 1.60649C14.9717 1.46566 14.9991 1.31471 14.9991 1.16227C14.9991 1.00983 14.9717 0.858886 14.9184 0.718051C14.8652 0.577215 14.7871 0.449248 14.6887 0.341458C14.5904 0.233667 14.4736 0.148165 14.345 0.0898294C14.2165 0.0314931 14.0787 0.00146857 13.9396 0.00146856C13.8005 0.00146854 13.6627 0.0314931 13.5341 0.0898293C13.4056 0.148165 13.2888 0.233667 13.1904 0.341458L8.3129 5.68546C8.21439 5.79318 8.13623 5.92112 8.08291 6.06196C8.02958 6.20281 8.00213 6.35379 8.00213 6.50628C8.00213 6.65876 8.02958 6.80974 8.08291 6.95059C8.13623 7.09144 8.21439 7.21938 8.3129 7.32709L13.1798 12.6595C13.5942 13.1135 14.2743 13.1135 14.6887 12.6595Z"
        fill="#B7B7B7" />
    <path
        d="M7.68484 12.658C7.78335 12.5503 7.86151 12.4223 7.91483 12.2815C7.96816 12.1406 7.99561 11.9897 7.99561 11.8372C7.99561 11.6847 7.96816 11.5337 7.91483 11.3929C7.86151 11.252 7.78335 11.1241 7.68484 11.0164L3.56179 6.49899L7.68484 1.98161C7.88353 1.76392 7.99516 1.46867 7.99516 1.1608C7.99516 0.852939 7.88353 0.557682 7.68484 0.339989C7.48615 0.122296 7.21667 -7.47796e-08 6.93568 -1.01755e-07C6.65469 -1.28731e-07 6.38521 0.122296 6.18652 0.339989L1.30899 5.684C1.21048 5.79171 1.13232 5.91965 1.079 6.06049C1.02568 6.20134 0.998229 6.35232 0.998229 6.50481C0.998229 6.65729 1.02568 6.80828 1.079 6.94912C1.13232 7.08997 1.21048 7.21791 1.30899 7.32562L6.18652 12.6696C6.59032 13.112 7.27041 13.112 7.68484 12.658Z"
        fill="#B7B7B7" />
</svg>