<svg width="24" height="24" viewBox="0 0 24 24" fill="none" xmlns="http://www.w3.org/2000/svg">
    <path
        d="M3 17C3 17.5523 3.44772 18 4 18H8.35294C8.90523 18 9.35294 17.5523 9.35294 17C9.35294 16.4477 8.90523 16 8.35294 16H4C3.44772 16 3 16.4477 3 17ZM4 6C3.44772 6 3 6.44772 3 7C3 7.55228 3.44772 8 4 8H20C20.5523 8 21 7.55228 21 7C21 6.44772 20.5523 6 20 6H4ZM3 12C3 12.5523 3.44772 13 4 13H13.6471C14.1993 13 14.6471 12.5523 14.6471 12C14.6471 11.4477 14.1993 11 13.6471 11H4C3.44771 11 3 11.4477 3 12Z"
        fill="#3F76DF" />
</svg>