<svg width="24" height="24" viewBox="0 0 24 24" fill="none" xmlns="http://www.w3.org/2000/svg">
    <path
        d="M18.3478 12.6164L15.7908 15.0616C15.0704 15.7649 16.0794 16.6164 16.6955 16.0149L20.1367 12.6549C20.2323 12.5616 20.3002 12.4605 20.3403 12.3516C20.3799 12.2427 20.3996 12.126 20.3996 12.0016C20.3996 11.8771 20.3799 11.7605 20.3403 11.6516C20.3002 11.5427 20.2323 11.4416 20.1367 11.3482L16.6955 7.98823C16.1098 7.41641 15.1182 8.26307 15.8898 9.01641L18.3478 11.4164C18.3478 11.4164 11.6565 11.4682 10.7006 11.4682C9.7447 11.4682 9.7447 12.6164 10.7006 12.6164H18.3478Z"
        fill="white" />
    <path
        d="M4.16072 19.8537C4.53544 20.2189 4.98567 20.4016 5.51142 20.4016H11.2468C11.4474 20.4016 11.7931 20.2164 11.7931 19.8537C11.7931 19.4164 11.4666 19.2016 11.2468 19.2016H5.51142C5.07187 19.2016 4.82863 18.8016 4.82863 18.6164V18.5349V5.41641C4.82863 5.41641 4.82863 4.83516 5.51142 4.83516C6.98883 4.83516 11.1336 4.80156 11.2468 4.80156C11.3834 4.80156 11.7931 4.61641 11.7931 4.21641C11.7931 3.81641 11.4225 3.60118 11.2468 3.60156C11.0712 3.60195 5.51142 3.60156 5.51142 3.60156C4.98567 3.60156 4.53544 3.78419 4.16072 4.14943C3.78665 4.5153 3.59961 4.9549 3.59961 5.46823V18.5349C3.59961 19.0482 3.78665 19.4878 4.16072 19.8537Z"
        fill="white" />
</svg>