<svg width="24" height="24" viewBox="0 0 24 24" fill="none" xmlns="http://www.w3.org/2000/svg">
    <path
        d="M19.5089 6.73477L19.8261 6.31718C20.0788 5.98521 20.453 5.7672 20.8664 5.71109C21.2799 5.65498 21.6986 5.76538 22.0306 6.01799C22.3626 6.27061 22.5807 6.64475 22.6368 7.05811C22.6929 7.47147 22.5824 7.89019 22.3298 8.22216L22.0125 8.63975M19.5089 6.73477C19.5089 6.73477 19.6606 7.50859 20.443 8.1041C21.2253 8.69962 22.0125 8.63975 22.0125 8.63975M19.5089 6.73477L16.589 10.5696C16.39 10.8291 16.2914 10.9595 16.2102 11.0989C16.1146 11.2636 16.0372 11.4372 15.9788 11.6195C15.9294 11.7731 15.8993 11.933 15.8387 12.2536L15.6444 13.281L15.5813 13.6133M22.0125 8.63975L19.0927 12.4746C18.8939 12.7357 18.7952 12.8653 18.6824 12.9807C18.5491 13.1166 18.4023 13.2374 18.2421 13.3423C18.1072 13.4308 17.961 13.5023 17.6681 13.6461L16.7293 14.1068L16.4258 14.2561M15.5813 13.6133L15.519 13.9463C15.5045 14.0236 15.5117 14.1034 15.54 14.1768C15.5682 14.2502 15.6163 14.3144 15.6789 14.362C15.7415 14.4096 15.8161 14.4389 15.8944 14.4466C15.9727 14.4543 16.0516 14.44 16.1222 14.4054L16.4258 14.2561M15.5813 13.6133L16.4258 14.2561"
        stroke="white" />
    <path
        d="M8.44444 12.9H10.6667M8.44444 9.3H14.2222M8.44444 16.5H9.77778M4 13.8V10.2C4 6.8061 4 5.1087 5.04178 4.0548C6.08267 3 7.75911 3 11.1111 3H12.8889C16.2409 3 17.9173 3 18.9582 4.0548M20 13.8C20 17.1939 20 18.8913 18.9582 19.9452M18.9582 19.9452C17.9173 21 16.2409 21 12.8889 21H11.1111C7.75911 21 6.08267 21 5.04178 19.9452M18.9582 19.9452C19.7973 19.0965 19.96 17.832 19.992 15.6"
        stroke="white" stroke-linecap="round" />
</svg>